<?xml version="1.0" encoding="iso-8859-1"?>
<!-- Generator: Adobe Illustrator 19.0.0, SVG Export Plug-In . SVG Version: 6.00 Build 0)  -->
<svg version="1.1" id="Capa_1" xmlns="http://www.w3.org/2000/svg" xmlns:xlink="http://www.w3.org/1999/xlink" x="0px" y="0px"
	 viewBox="0 0 511.997 511.997" style="enable-background:new 0 0 511.997 511.997;" xml:space="preserve">
<g>
	<g>
		<path d="M255.999,386.014l-0.446-0.001c-5.522,0-10,4.478-10,10c0,5.522,4.478,10,10,10l0.446,0.001c5.522,0,10-4.478,10-10
			C265.999,390.492,261.521,386.014,255.999,386.014z"/>
	</g>
</g>
<g>
	<g>
		<path d="M255.999,234.767c-28.431,0-51.562,23.131-51.562,51.562c0,28.431,23.131,51.561,51.562,51.561
			c28.431,0,51.562-23.131,51.562-51.562C307.561,257.897,284.429,234.767,255.999,234.767z M255.999,317.89
			c-17.403,0-31.562-14.158-31.562-31.562c0-17.404,14.158-31.562,31.562-31.562s31.562,14.158,31.562,31.562
			S273.402,317.89,255.999,317.89z"/>
	</g>
</g>
<g>
	<g>
		<path d="M427.487,114.84C381.68,69.035,320.778,43.808,255.999,43.808c-16.606,0-32.955,1.669-48.862,4.906L153.916,2.453
			c-2.719-2.363-6.5-3.081-9.895-1.881L20.144,44.381c-3.995,1.413-6.666,5.19-6.666,9.428V286.33c0,5.522,4.478,10,10,10h65.567
			c5.191,87.589,78.084,157.26,166.953,157.26s161.762-69.671,166.953-157.26h65.567c5.522,0,10-4.478,10-10
			C498.519,221.548,473.293,160.647,427.487,114.84z M33.478,60.879l111.716-39.508l38.41,33.387
			c-7.372,2.295-14.621,4.939-21.725,7.93l-15.777-15.919c-2.744-2.769-6.847-3.691-10.512-2.362L60.508,71.635
			c-3.956,1.436-6.591,5.193-6.591,9.401v71.076c-7.945,11.909-14.769,24.449-20.438,37.483L33.478,60.879L33.478,60.879z
			 M142.72,71.769c-21.174,11.213-40.786,25.649-58.209,43.072c-3.669,3.669-7.191,7.446-10.594,11.303V88.048l62.48-22.658
			L142.72,71.769z M255.999,433.589c-77.839,0-141.755-60.707-146.914-137.26h27.66c3.89,46.14,34.433,86.594,78.471,102.554
			c1.125,0.408,2.275,0.602,3.406,0.602c4.09,0,7.929-2.528,9.402-6.596c1.882-5.192-0.802-10.927-5.994-12.809
			c-39.159-14.192-65.509-51.638-65.708-93.278c0.007-0.158,0.024-0.313,0.024-0.473c0-54.949,44.704-99.653,99.652-99.653
			s99.652,44.704,99.652,99.653c0,5.522,4.478,10,10,10h37.262C397.754,372.881,333.838,433.589,255.999,433.589z M375.237,276.329
			c-5.096-61.318-56.628-109.654-119.238-109.654s-114.143,48.336-119.238,109.653H33.7c1.917-43.196,16.221-83.219,39.419-116.622
			c0.234-0.173,0.418-0.432,0.552-0.791c40.275-57.461,106.983-95.107,182.328-95.107c119.351,0,217.057,94.439,222.299,212.521
			H375.237z"/>
	</g>
</g>
<g>
	<g>
		<path d="M472.901,337.012l-18.438-30.819c-2.833-4.739-8.975-6.285-13.715-3.447c-4.739,2.835-6.283,8.976-3.447,13.715
			l13.143,21.969l-22.366,12.454c-4.055,2.259-6.023,7.011-4.753,11.476l7.009,24.621l-24.827,6.241
			c-4.502,1.132-7.634,5.213-7.562,9.854l0.398,25.597l-25.598-0.397c-4.595-0.055-8.723,3.059-9.854,7.562l-6.24,24.827
			l-24.622-7.01c-4.468-1.271-9.217,0.698-11.476,4.753l-12.454,22.365l-21.968-13.143c-3.984-2.387-9.084-1.712-12.313,1.621
			l-17.819,18.381l-17.819-18.381c-3.23-3.333-8.33-4.005-12.313-1.621l-21.968,13.143l-12.454-22.367
			c-2.258-4.055-7.006-6.025-11.476-4.753l-24.622,7.01l-6.24-24.827c-1.119-4.451-5.12-7.563-9.696-7.563
			c-0.053,0-0.105,0-0.157,0.001l-25.598,0.397l0.398-25.597c0.072-4.641-3.06-8.722-7.562-9.854l-24.827-6.241l7.009-24.621
			c1.271-4.465-0.698-9.217-4.753-11.476l-22.366-12.454l13.143-21.969c2.836-4.739,1.292-10.88-3.447-13.715
			c-4.74-2.838-10.88-1.292-13.715,3.447l-18.439,30.821c-1.39,2.322-1.778,5.108-1.078,7.722s2.43,4.832,4.794,6.149l24.457,13.618
			l-7.664,26.922c-0.74,2.604-0.396,5.395,0.958,7.738c1.353,2.344,3.598,4.039,6.223,4.698l27.147,6.824l-0.436,27.989
			c-0.042,2.705,1.015,5.313,2.928,7.227c1.913,1.913,4.51,2.964,7.227,2.928l27.99-0.435l6.823,27.147
			c0.659,2.625,2.354,4.87,4.698,6.223c2.345,1.354,5.14,1.699,7.738,0.958l26.923-7.665l13.618,24.458
			c1.316,2.364,3.535,4.094,6.149,4.794c2.61,0.7,5.399,0.312,7.722-1.078l24.021-14.371l19.484,20.099
			c1.883,1.943,4.474,3.04,7.18,3.04c2.706,0,5.297-1.097,7.18-3.04l19.484-20.099l24.021,14.371
			c2.322,1.391,5.109,1.78,7.722,1.078c2.614-0.7,4.833-2.43,6.149-4.794l13.618-24.458l26.923,7.665
			c2.604,0.74,5.395,0.396,7.738-0.958c2.344-1.353,4.039-3.598,4.698-6.223l6.823-27.147l27.99,0.435
			c2.671,0.035,5.313-1.015,7.227-2.928c1.913-1.914,2.97-4.521,2.928-7.227l-0.436-27.989l27.147-6.824
			c2.625-0.659,4.87-2.354,6.223-4.698c1.354-2.344,1.698-5.135,0.958-7.738l-7.664-26.922l24.457-13.618
			c2.364-1.317,4.094-3.535,4.794-6.149C474.679,342.121,474.291,339.335,472.901,337.012z"/>
	</g>
</g>
<g>
	<g>
		<path d="M84.468,237.7c-1.86-1.861-4.44-2.931-7.07-2.931c-2.64,0-5.21,1.07-7.069,2.931c-1.86,1.859-2.931,4.43-2.931,7.069
			c0,2.63,1.07,5.21,2.931,7.07c1.859,1.86,4.43,2.93,7.069,2.93c2.63,0,5.21-1.069,7.07-2.93c1.86-1.861,2.93-4.44,2.93-7.07
			C87.398,242.129,86.329,239.559,84.468,237.7z"/>
	</g>
</g>
<g>
	<g>
		<path d="M417.65,193.009c-24.478-42.317-63.759-72.943-110.605-86.236c-5.31-1.507-10.841,1.577-12.35,6.891
			c-1.508,5.313,1.577,10.842,6.891,12.35c41.213,11.695,77.207,39.764,98.752,77.009c1.854,3.204,5.212,4.995,8.666,4.995
			c1.698,0,3.421-0.434,4.997-1.346C418.782,203.906,420.416,197.789,417.65,193.009z"/>
	</g>
</g>
<g>
	<g>
		<path d="M254.752,99.701c-0.05,0-0.101,0-0.151,0.001l-0.352,0.001c-5.522,0-10,4.478-10,10c0,5.522,4.478,10,10,10l0.648-0.003
			c5.521-0.082,9.933-4.625,9.851-10.147C264.667,104.081,260.206,99.701,254.752,99.701z"/>
	</g>
</g>
<g>
</g>
<g>
</g>
<g>
</g>
<g>
</g>
<g>
</g>
<g>
</g>
<g>
</g>
<g>
</g>
<g>
</g>
<g>
</g>
<g>
</g>
<g>
</g>
<g>
</g>
<g>
</g>
<g>
</g>
</svg>
