<svg id="Capa_1" enable-background="new 0 0 511 511" height="512" viewBox="0 0 511 511" width="512" xmlns="http://www.w3.org/2000/svg"><g id="Outline_29_"><g><path d="m271.5 88h-24c-4.143 0-7.5 3.358-7.5 7.5s3.357 7.5 7.5 7.5h24c4.143 0 7.5-3.358 7.5-7.5s-3.357-7.5-7.5-7.5z"/><path d="m271.5 112h-24c-4.143 0-7.5 3.358-7.5 7.5s3.357 7.5 7.5 7.5h24c4.143 0 7.5-3.358 7.5-7.5s-3.357-7.5-7.5-7.5z"/><path d="m271.5 136h-24c-4.143 0-7.5 3.358-7.5 7.5s3.357 7.5 7.5 7.5h24c4.143 0 7.5-3.358 7.5-7.5s-3.357-7.5-7.5-7.5z"/><path d="m511 151.5v-64c0-21.78-17.72-39.5-39.5-39.5h-23.695c-4.143 0-7.5 3.358-7.5 7.5s3.357 7.5 7.5 7.5h23.695c13.51 0 24.5 10.991 24.5 24.5v64c0 13.509-10.99 24.5-24.5 24.5h-142.229l-26.271-13.135v-86.73l26.271-13.135h82.534c4.143 0 7.5-3.358 7.5-7.5s-3.357-7.5-7.5-7.5h-84.305c-1.164 0-2.313.271-3.354.792l-30.417 15.208h-54.229c-10.336 0-19.128 6.71-22.266 16h-41.734c-10.336 0-19.128 6.71-22.266 16h-25.734c-4.143 0-7.5 3.358-7.5 7.5v8.5h-9.024c.138-2.083-.581-4.212-2.173-5.803-2.93-2.929-7.678-2.929-10.607 0l-5.803 5.803h-13.417c.138-2.083-.581-4.212-2.173-5.803-2.93-2.929-7.678-2.929-10.607 0l-5.803 5.803h-13.417c.138-2.083-.581-4.212-2.173-5.803-2.93-2.929-7.678-2.929-10.607 0l-5.803 5.803h-20.893c-4.143 0-7.5 3.358-7.5 7.5s3.357 7.5 7.5 7.5h8.524c-.138 2.083.581 4.212 2.173 5.803 1.464 1.465 3.384 2.197 5.303 2.197s3.839-.732 5.304-2.197l5.803-5.803h13.417c-.138 2.083.581 4.212 2.173 5.803 1.464 1.465 3.384 2.197 5.303 2.197s3.839-.732 5.304-2.197l5.803-5.803h13.417c-.138 2.083.581 4.212 2.173 5.803 1.464 1.465 3.384 2.197 5.303 2.197s3.839-.732 5.304-2.197l5.803-5.803h21.393v8.5c0 4.142 3.357 7.5 7.5 7.5h25.734c3.138 9.29 11.93 16 22.266 16h41.734c3.138 9.29 11.93 16 22.266 16h54.229l30.416 15.208c1.042.521 2.19.792 3.354.792h.59c.206 9.149.782 17.431 1.657 25h-10.246c-4.143 0-7.5 3.358-7.5 7.5v48c0 4.142 3.357 7.5 7.5 7.5h27.67c.469 1.131.939 2.26 1.407 3.385 9.435 22.644 18.371 44.114 19.333 85.615h-88.41c-21.78 0-39.5 17.72-39.5 39.5v48c0 4.142 3.357 7.5 7.5 7.5h256c4.143 0 7.5-3.358 7.5-7.5v-48c0-1.605-.537-3.216-1.5-4.5l-22.517-30.022c-.352-47.826-10.619-72.502-20.561-96.362-9.435-22.644-18.371-44.114-19.333-85.615h24.41c21.781-.001 39.501-17.721 39.501-39.501zm-376-40.5h17v17h-17zm32 24.5v-32c0-4.687 3.813-8.5 8.5-8.5h40.5v49h-40.5c-4.687 0-8.5-3.813-8.5-8.5zm64 16v-64c0-4.687 3.813-8.5 8.5-8.5h48.5v81h-48.5c-4.687 0-8.5-3.813-8.5-8.5zm96 112.5v-33h5.008c2.387 12.711 5.641 23.314 9.216 33zm20.271-33h34.772c11.476 0 21.293 7.81 23.874 18.991l9.23 40c1.688 7.317-.024 14.885-4.7 20.762-4.675 5.876-11.663 9.247-19.173 9.247h-13.953c-3.956-17.117-9.477-30.372-14.898-43.385-5.828-13.988-11.465-27.529-15.152-45.615zm-67.771 152h96 100.25l12.75 17h-232.321c3.175-9.851 12.427-17 23.321-17zm216.5 65h-241v-33h241zm-43.423-165.615c9.436 22.646 18.378 44.106 19.338 85.615h-88.998c-.28-12.487-1.259-23.338-2.732-33h11.089c12.107 0 23.374-5.434 30.912-14.909 7.537-9.475 10.299-21.675 7.576-33.473l-9.23-40c-4.161-18.028-19.988-30.618-38.489-30.618h-37.207c-.924-7.496-1.537-15.747-1.751-25h88.998c1 44.598 10.902 68.364 20.494 91.385z"/><path d="m479 87.5c0-4.142-3.357-7.5-7.5-7.5h-128c-4.143 0-7.5 3.358-7.5 7.5v32c0 4.142 3.357 7.5 7.5 7.5h128c4.143 0 7.5-3.358 7.5-7.5zm-15 24.5h-113v-17h113z"/><path d="m471.5 144h-32c-4.143 0-7.5 3.358-7.5 7.5s3.357 7.5 7.5 7.5h32c4.143 0 7.5-3.358 7.5-7.5s-3.357-7.5-7.5-7.5z"/><path d="m343.5 144c-4.143 0-7.5 3.358-7.5 7.5s3.357 7.5 7.5 7.5h64c4.143 0 7.5-3.358 7.5-7.5s-3.357-7.5-7.5-7.5z"/></g></g></svg>