<?xml version="1.0" encoding="iso-8859-1"?>
<!-- Generator: Adobe Illustrator 19.0.0, SVG Export Plug-In . SVG Version: 6.00 Build 0)  -->
<svg version="1.1" id="Capa_1" xmlns="http://www.w3.org/2000/svg" xmlns:xlink="http://www.w3.org/1999/xlink" x="0px" y="0px"
	 viewBox="0 0 512 512" style="enable-background:new 0 0 512 512;" xml:space="preserve">
<g>
	<g>
		<path d="M510.493,184.231c-0.772-1.667-1.826-3.234-3.199-4.607v0.001l-18.542-18.544c-0.586-0.586-1.193-1.14-1.812-1.671
			c-0.203-0.174-0.414-0.332-0.62-0.5c-0.425-0.346-0.852-0.687-1.29-1.008c-0.25-0.183-0.506-0.354-0.76-0.529
			c-0.41-0.282-0.823-0.557-1.244-0.818c-0.271-0.168-0.543-0.329-0.818-0.487c-0.422-0.244-0.848-0.476-1.278-0.698
			c-0.277-0.143-0.553-0.285-0.834-0.419c-0.452-0.216-0.909-0.416-1.37-0.609c-0.265-0.111-0.527-0.228-0.795-0.332
			c-0.532-0.206-1.071-0.389-1.612-0.565c-0.201-0.065-0.398-0.141-0.601-0.202c-0.749-0.226-1.505-0.426-2.267-0.594
			c-0.121-0.027-0.244-0.043-0.365-0.068c-0.641-0.133-1.285-0.25-1.933-0.343c-0.256-0.036-0.514-0.058-0.77-0.088
			c-0.518-0.06-1.037-0.114-1.559-0.148c-0.292-0.019-0.584-0.028-0.876-0.038c-0.493-0.018-0.986-0.027-1.481-0.021
			c-0.302,0.003-0.603,0.012-0.905,0.024c-0.494,0.02-0.988,0.054-1.482,0.098c-0.295,0.026-0.589,0.051-0.884,0.085
			c-0.521,0.061-1.04,0.143-1.559,0.23c-0.264,0.045-0.528,0.081-0.791,0.133c-0.631,0.123-1.26,0.273-1.887,0.436
			c-0.148,0.039-0.297,0.066-0.445,0.107c-0.736,0.203-1.47,0.431-2.197,0.689l-9.189-9.19c-2.779-2.778-3.429-6.987-1.62-10.471
			c3.322-6.393,2.144-14.099-2.931-19.176l-38.039-38.039c-25.133-25.132-56.881-41.889-91.813-48.458l-72.349-13.606
			c-5.456-1.025-10.702,1.858-12.76,7.013c-2.059,5.156-0.24,10.861,4.422,13.873l65.095,42.063
			c7.246,4.683,12.131,12.263,13.402,20.797c1.27,8.534-1.195,17.208-6.764,23.799l-10.799,12.779
			c-5.26,6.225-5.076,15.478,0.259,21.518L164.188,285.689c-8.882-3.198-19.215-1.249-26.32,5.854l-52.035,52.035
			c-2.845,2.846-2.845,7.459,0,10.306c2.846,2.845,7.459,2.845,10.306,0l52.035-52.035c3.601-3.602,9.177-4.053,13.273-1.353
			c0.035,0.024,0.065,0.053,0.1,0.077c0.293,0.199,0.565,0.402,0.822,0.612c0.252,0.209,0.499,0.428,0.735,0.664l32.448,32.448
			c0.453,0.453,0.881,0.975,1.274,1.554c0.024,0.035,0.053,0.067,0.078,0.102c2.7,4.096,2.25,9.673-1.352,13.274L65.033,479.747
			c-4.117,4.115-10.815,4.117-14.93,0l-32.449-32.449c-4.117-4.116-4.116-10.814,0-14.929l46.176-46.175
			c2.845-2.846,2.845-7.46,0-10.306c-2.845-2.845-7.459-2.845-10.306,0L7.348,422.064c-9.797,9.799-9.797,25.742,0,35.54
			l32.45,32.449c4.899,4.899,11.334,7.348,17.769,7.348c6.436,0,12.871-2.449,17.771-7.348l130.52-130.52
			c7.104-7.105,9.052-17.439,5.854-26.32l69.888-69.887c2.845-2.846,2.845-7.459,0-10.306c-2.845-2.845-7.459-2.845-10.306,0
			l-68.205,68.205l-26.913-26.913l127.325-127.325l26.913,26.913l-26.974,26.973c-2.845,2.846-2.845,7.459,0,10.306
			c2.846,2.845,7.46,2.845,10.306,0l27.064-27.064c6.218,4.899,15.172,4.719,21.19-0.709l12.451-11.234
			c10.861-8.923,26.511-8.168,36.463,1.783l2.597,2.597c-0.258,0.727-0.486,1.46-0.689,2.196c-0.045,0.164-0.076,0.329-0.119,0.493
			c-0.158,0.61-0.303,1.22-0.423,1.833c-0.054,0.276-0.093,0.553-0.139,0.83c-0.085,0.505-0.164,1.01-0.224,1.517
			c-0.036,0.306-0.062,0.613-0.089,0.919c-0.042,0.481-0.076,0.962-0.096,1.442c-0.013,0.313-0.021,0.626-0.025,0.939
			c-0.005,0.481,0.003,0.96,0.021,1.439c0.011,0.305,0.02,0.61,0.04,0.914c0.033,0.505,0.086,1.007,0.144,1.509
			c0.031,0.272,0.055,0.546,0.093,0.817c0.089,0.622,0.203,1.24,0.329,1.855c0.03,0.146,0.05,0.294,0.082,0.439
			c0.167,0.757,0.366,1.508,0.59,2.252c0.066,0.217,0.147,0.429,0.217,0.645c0.172,0.526,0.349,1.05,0.55,1.567
			c0.106,0.275,0.226,0.544,0.341,0.816c0.191,0.453,0.387,0.903,0.6,1.347c0.137,0.286,0.282,0.567,0.428,0.849
			c0.22,0.425,0.449,0.845,0.689,1.262c0.161,0.278,0.324,0.555,0.494,0.83c0.259,0.417,0.532,0.827,0.812,1.234
			c0.176,0.256,0.349,0.514,0.533,0.766c0.319,0.436,0.659,0.861,1.003,1.284c0.169,0.208,0.329,0.421,0.505,0.625
			c0.531,0.619,1.084,1.225,1.67,1.811l18.542,18.544c3.138,3.138,7.259,4.706,11.381,4.706c0.515,0,1.03-0.024,1.544-0.074
			c3.593-0.343,7.092-1.887,9.837-4.633l45.142-45.143c3.137-3.138,4.706-7.259,4.706-11.381
			C512,188.686,511.485,186.374,510.493,184.231z M421.22,183.649c-8.159-8.158-18.808-12.293-29.505-12.293
			c-9.415,0-18.867,3.205-26.681,9.692c-0.077,0.064-0.152,0.129-0.227,0.196l-12.569,11.34c-0.745,0.673-1.882,0.642-2.593-0.067
			l-45.432-45.431c-0.003-0.003,0,0-0.003-0.003c-0.688-0.687-0.734-1.807-0.107-2.548l10.799-12.779
			c8.272-9.79,11.934-22.674,10.047-35.351c-1.886-12.677-9.143-23.936-19.907-30.891l-51.773-33.456l56.764,10.675
			c32.035,6.024,61.151,21.392,84.2,44.441l38.04,38.038c0.56,0.56,0.681,1.424,0.303,2.153c-4.753,9.152-3.046,20.202,4.247,27.495
			l7.592,7.592l-22.195,22.195L421.22,183.649z M497.404,191.287c-0.001,0.014-0.008,0.036-0.013,0.057
			c-0.016,0.072-0.036,0.142-0.062,0.211c-0.014,0.035-0.033,0.07-0.05,0.105c-0.026,0.055-0.052,0.109-0.084,0.161
			c-0.056,0.087-0.122,0.174-0.206,0.258l-45.142,45.143c-0.592,0.594-1.558,0.593-2.15,0.001l-18.542-18.544
			c-0.329-0.329-0.642-0.67-0.939-1.019c-0.069-0.081-0.129-0.168-0.197-0.25c-0.22-0.269-0.437-0.539-0.637-0.819
			c-0.09-0.125-0.169-0.256-0.255-0.383c-0.165-0.244-0.331-0.487-0.482-0.737c-0.088-0.146-0.165-0.298-0.248-0.446
			c-0.133-0.238-0.268-0.475-0.389-0.718c-0.081-0.162-0.151-0.329-0.226-0.494c-0.107-0.235-0.216-0.47-0.311-0.709
			c-0.069-0.174-0.128-0.35-0.192-0.526c-0.085-0.236-0.171-0.472-0.245-0.712c-0.056-0.181-0.102-0.364-0.152-0.547
			c-0.065-0.239-0.13-0.478-0.184-0.719c-0.042-0.186-0.074-0.375-0.11-0.563c-0.045-0.241-0.089-0.481-0.123-0.724
			c-0.027-0.192-0.046-0.385-0.066-0.577c-0.025-0.241-0.049-0.483-0.064-0.726c-0.012-0.195-0.017-0.391-0.021-0.587
			c-0.006-0.242-0.009-0.484-0.005-0.726c0.004-0.197,0.014-0.395,0.024-0.593c0.013-0.242,0.03-0.484,0.054-0.725
			c0.02-0.199,0.044-0.397,0.071-0.595c0.032-0.241,0.069-0.482,0.113-0.722c0.036-0.199,0.075-0.397,0.118-0.595
			c0.052-0.239,0.109-0.477,0.171-0.715c0.052-0.198,0.107-0.395,0.166-0.591c0.071-0.237,0.149-0.472,0.231-0.707
			c0.068-0.195,0.138-0.39,0.213-0.584c0.091-0.233,0.189-0.465,0.29-0.696c0.084-0.192,0.17-0.385,0.262-0.575
			c0.047-0.097,0.1-0.192,0.149-0.289l30.901-30.901c0.096-0.049,0.192-0.102,0.289-0.149c0.192-0.092,0.384-0.178,0.578-0.263
			c0.229-0.101,0.459-0.199,0.691-0.289c0.197-0.076,0.394-0.147,0.592-0.216c0.232-0.081,0.464-0.157,0.698-0.228
			c0.2-0.06,0.4-0.116,0.601-0.168c0.234-0.061,0.469-0.118,0.705-0.169c0.202-0.044,0.404-0.084,0.607-0.12
			c0.235-0.042,0.471-0.078,0.707-0.11c0.204-0.028,0.407-0.053,0.611-0.073c0.236-0.023,0.472-0.04,0.708-0.053
			c0.204-0.011,0.407-0.021,0.61-0.025c0.236-0.004,0.473-0.001,0.708,0.005c0.202,0.005,0.404,0.01,0.605,0.022
			c0.236,0.014,0.47,0.037,0.705,0.062c0.2,0.021,0.4,0.041,0.599,0.069c0.234,0.033,0.465,0.076,0.697,0.119
			c0.197,0.037,0.394,0.071,0.59,0.115c0.231,0.052,0.46,0.114,0.688,0.176c0.193,0.052,0.386,0.101,0.576,0.16
			c0.229,0.071,0.455,0.154,0.682,0.235c0.185,0.066,0.371,0.129,0.554,0.202c0.228,0.091,0.452,0.195,0.676,0.297
			c0.176,0.08,0.354,0.155,0.528,0.241c0.225,0.112,0.445,0.238,0.666,0.36c0.167,0.092,0.336,0.179,0.5,0.278
			c0.227,0.137,0.446,0.288,0.667,0.436c0.151,0.101,0.304,0.195,0.452,0.301c0.243,0.174,0.477,0.365,0.711,0.554
			c0.118,0.095,0.241,0.182,0.358,0.281c0.347,0.295,0.686,0.605,1.013,0.933l18.542,18.544c0.083,0.083,0.148,0.17,0.204,0.256
			c0.036,0.056,0.064,0.115,0.091,0.174c0.014,0.031,0.032,0.062,0.044,0.092c0.028,0.072,0.049,0.146,0.065,0.221
			c0.004,0.018,0.011,0.037,0.014,0.055C497.438,190.917,497.438,191.104,497.404,191.287z"/>
	</g>
</g>
<g>
</g>
<g>
</g>
<g>
</g>
<g>
</g>
<g>
</g>
<g>
</g>
<g>
</g>
<g>
</g>
<g>
</g>
<g>
</g>
<g>
</g>
<g>
</g>
<g>
</g>
<g>
</g>
<g>
</g>
</svg>
