<?xml version="1.0" encoding="iso-8859-1"?>
<!-- Generator: Adobe Illustrator 16.0.0, SVG Export Plug-In . SVG Version: 6.00 Build 0)  -->
<!DOCTYPE svg PUBLIC "-//W3C//DTD SVG 1.1//EN" "http://www.w3.org/Graphics/SVG/1.1/DTD/svg11.dtd">
<svg version="1.1" id="Capa_1" xmlns="http://www.w3.org/2000/svg" xmlns:xlink="http://www.w3.org/1999/xlink" x="0px" y="0px"
	 width="324.314px" height="324.314px" viewBox="0 0 324.314 324.314" style="enable-background:new 0 0 324.314 324.314;"
	 xml:space="preserve">
<g>
	<g>
		<path d="M113.779,210.533h96.757V167.53h-96.757V210.533z M124.529,178.28h75.255v21.502h-75.255V178.28z"/>
		<path d="M113.779,264.287h96.757v-43.004h-96.757V264.287z M124.529,232.034h75.255v21.502h-75.255V232.034z"/>
		<path d="M113.779,156.779h96.757V108.4h-96.757V156.779z M124.529,119.151h75.255v26.877h-75.255V119.151z"/>
		<path d="M215.911,0c-8.892,0-16.126,7.236-16.126,16.126v17.019h-75.255V16.126c0-8.89-7.236-16.126-16.126-16.126
			c-8.893,0-16.126,7.236-16.126,16.126v292.062c0,8.887,7.234,16.126,16.126,16.126c8.89,0,16.126-7.239,16.126-16.126v-22.4
			h75.255v22.4c0,8.887,7.234,16.126,16.126,16.126c8.893,0,16.127-7.239,16.127-16.126V16.126C232.038,7.236,224.803,0,215.911,0z
			 M221.287,308.188c0,2.971-2.404,5.375-5.376,5.375c-2.971,0-5.375-2.404-5.375-5.375v-33.15h-96.757v33.15
			c0,2.971-2.404,5.375-5.375,5.375c-2.974,0-5.375-2.404-5.375-5.375V16.126c0-2.971,2.401-5.375,5.375-5.375
			c2.971,0,5.375,2.405,5.375,5.375v27.77h96.757v-27.77c0-2.971,2.404-5.375,5.375-5.375c2.972,0,5.376,2.405,5.376,5.375V308.188z
			"/>
		<path d="M113.779,97.649h96.757V54.646h-96.757V97.649z M124.529,65.397h75.255v21.501h-75.255V65.397z"/>
	</g>
</g>
<g>
</g>
<g>
</g>
<g>
</g>
<g>
</g>
<g>
</g>
<g>
</g>
<g>
</g>
<g>
</g>
<g>
</g>
<g>
</g>
<g>
</g>
<g>
</g>
<g>
</g>
<g>
</g>
<g>
</g>
</svg>
