<?xml version="1.0" encoding="iso-8859-1"?>
<!-- Generator: Adobe Illustrator 19.0.0, SVG Export Plug-In . SVG Version: 6.00 Build 0)  -->
<svg version="1.1" id="Capa_1" xmlns="http://www.w3.org/2000/svg" xmlns:xlink="http://www.w3.org/1999/xlink" x="0px" y="0px"
	 viewBox="0 0 459.2 459.2" style="enable-background:new 0 0 459.2 459.2;" xml:space="preserve">
<g>
	<g>
		<path d="M190,343.2l-48-48c-4.8-4.8-10.4-6.4-17.6-6.4c-10.4,0-21.6,5.6-30.4,13.6c-15.2,15.2-18.4,36-7.2,47.2l48,48
			c4.8,4.8,10.4,6.4,17.6,6.4c10.4,0,21.6-5.6,30.4-13.6C198,375.2,201.2,354.4,190,343.2z M170,378.4c-6.4,6.4-12.8,8.8-17.6,8.8
			c-1.6,0-3.2,0-4.8-1.6l-48-48c-3.2-3.2-1.6-13.6,7.2-22.4c6.4-6.4,12.8-8.8,17.6-8.8c1.6,0,3.2,0,4.8,1.6l48,48
			C180.4,359.2,178.8,368.8,170,378.4z"/>
	</g>
</g>
<g>
	<g>
		<path d="M430.8,69.6c0-2.4-1.6-4.8-3.2-6.4L366.8,2.4c-3.2-3.2-9.6-3.2-12.8,0L135.6,220.8L31.6,324c-4,4-6.4,8.8-6.4,14.4
			c0,5.6,1.6,11.2,5.6,15.2l100,100c3.2,4,8.8,5.6,13.6,5.6c5.6,0,11.2-2.4,16-6.4l75.2-75.2c6.4-6.4,20-22.4,20.8-42.4l28.8,0.8
			c2.4,0,4.8-0.8,6.4-2.4c1.6-1.6,2.4-4,2.4-7.2l-3.2-42.4l30.4,0.8c2.4,0,4.8-0.8,6.4-2.4c1.6-1.6,2.4-4,2.4-7.2l-3.2-42.4
			l28.8,0.8c2.4,0,4.8-0.8,6.4-2.4c1.6-1.6,2.4-4,2.4-7.2l-2.4-42.4l28,0.8c2.4,0,4.8-0.8,6.4-2.4c1.6-1.6,2.4-4,2.4-7.2l-3.2-41.6
			l29.6,0.8c2.4,0,4.8-0.8,6.4-2.4c1.6-1.6,2.4-4,2.4-7.2L430.8,69.6z M222,364.8L146.8,440c-0.8,0.8-3.2,2.4-4,0.8l-99.2-100V340
			c0-0.8,0-2.4,0.8-3.2L146,235.2l1.6-1.6c0.8-0.8,1.6-1.6,3.2-1.6h0.8l70.4,70.4C247.6,328,236.4,350.4,222,364.8z M386,112
			c-4.8,0-8.8,4.8-8,9.6l3.2,42.4l-28-0.8c-4.8,0-8.8,4-9.6,8.8c0,1.6,4,44,4,44s-28.8-1.6-29.6-1.6c-4.8,0-8.8,4.8-8,9.6l3.2,42.4
			l-31.2-0.8c-4.8,0-8.8,4.8-8,9.6l3.2,42.4l-22.4-0.8c-3.2-8.8-8.8-17.6-17.6-27.2l-70.4-70.4c-0.8-0.8-0.8-0.8-1.6-1.6l195.2-196
			l52.8,52.8l3.2,39.2C416.4,113.6,387.6,112,386,112z"/>
	</g>
</g>
<g>
	<g>
		<path d="M359.6,47.2c-15.2,0-27.2,12-27.2,27.2c0.8,14.4,12.8,27.2,27.2,27.2c15.2,0,27.2-12,27.2-27.2S374.8,47.2,359.6,47.2z
			 M359.6,83.2c-4.8,0-8.8-4-8.8-8.8c0-4.8,4-8.8,8.8-8.8c4.8,0,8.8,4,8.8,8.8S364.4,83.2,359.6,83.2z"/>
	</g>
</g>
<g>
</g>
<g>
</g>
<g>
</g>
<g>
</g>
<g>
</g>
<g>
</g>
<g>
</g>
<g>
</g>
<g>
</g>
<g>
</g>
<g>
</g>
<g>
</g>
<g>
</g>
<g>
</g>
<g>
</g>
</svg>
